<svg xmlns="http://www.w3.org/2000/svg" version="1.1" xmlns:xlink="http://www.w3.org/1999/xlink" xmlns:svgjs="http://svgjs.dev/svgjs" width="1000" height="1000" viewBox="0 0 1000 1000"><rect width="1000" height="1000" fill="#ffffff"></rect><g transform="matrix(0.7,0,0,0.7,149.57577274562016,328.42579897135005)"><svg viewBox="0 0 396 194" data-background-color="#ffffff" preserveAspectRatio="xMidYMid meet" height="489" width="1000" xmlns="http://www.w3.org/2000/svg" xmlns:xlink="http://www.w3.org/1999/xlink"><g id="tight-bounds" transform="matrix(1,0,0,1,0.2399914181920053,0.24041776090592748)"><svg viewBox="0 0 395.52 193.51916447818815" height="193.51916447818815" width="395.52"><g><svg viewBox="0 0 395.52 193.51916447818815" height="193.51916447818815" width="395.52"><g><svg viewBox="0 0 395.52 193.51916447818815" height="193.51916447818815" width="395.52"><g id="textblocktransform"><svg viewBox="0 0 395.52 193.51916447818815" height="193.51916447818815" width="395.52" id="textblock"><g><svg viewBox="0 0 395.52 163.45254177035193" height="163.45254177035193" width="395.52"><g transform="matrix(1,0,0,1,0,0)"><svg width="395.52" viewBox="0 -35.75 281.29998779296875 113.25000762939453" height="163.45254177035193" data-palette-color="#883d1a"><svg></svg><svg></svg><svg></svg><g class="wordmark-text-0" data-fill-palette-color="primary" id="text-0"><path xmlns="http://www.w3.org/2000/svg" d="M30.8-2.15h6.7v2.15h-37.5v-2.15h10.85c-2.667-1.567-4.757-3.693-6.27-6.38-1.52-2.68-2.28-5.72-2.28-9.12v0c0-5.133 1.777-9.433 5.33-12.9 3.547-3.467 7.83-5.2 12.85-5.2 5.013 0 9.37 1.65 13.07 4.95v0l-4.05 5.85c-1.567-1.367-3.007-2.31-4.32-2.83-1.32-0.513-2.747-0.77-4.28-0.77v0c-2.967 0-5.467 1.007-7.5 3.02-2.033 2.02-3.05 4.68-3.05 7.98 0 3.3 0.977 5.94 2.93 7.92 1.947 1.987 4.27 2.98 6.97 2.98 2.7 0 4.95-0.517 6.75-1.55v0-9.6h7.85v12.4c-1.133 1.267-2.483 2.35-4.05 3.25zM73.75-2.15h5.8v2.15h-13.15l-3.25-7.55h-14.65l-3.25 7.55h-13.15v-2.15h5.75l14.2-32.8h7.55zM60.2-14.4l-4.35-10.15-4.4 10.15zM101.45-2.15h4.85v2.15h-32.4v-2.15h4.85v-32.8h7.8v28h14.9zM129.85-2.15h4.85v2.15h-32.4v-2.15h4.85v-32.8h7.8v28h14.9zM130.7-2.15h4.85v-32.8h25.2v6.95h-17.4v7.2h15.65v6.65h-15.65v7.25h17.95v4.75h4.85v2.15h-35.45zM163.4-2.15h4.85v-32.8h13.25c5.433 0 9.31 0.917 11.63 2.75 2.313 1.833 3.47 4.783 3.47 8.85v0c0 5.6-2.217 9.217-6.65 10.85v0l7.3 10.35h4.7v2.15h-12.75l-7.75-11.15h-5.4v11.15h-12.65zM181.75-17.9c2.667 0 4.483-0.433 5.45-1.3 0.967-0.867 1.45-2.243 1.45-4.13 0-1.88-0.5-3.17-1.5-3.87-1-0.7-2.75-1.05-5.25-1.05v0h-5.85v10.35zM218.75-2.15h11.55v2.15h-30.9v-2.15h11.55v-11.65l-12.1-21.15h8.45l7.55 13 7.55-13h8.45l-12.1 21.15z" fill="#000000" fill-rule="nonzero" stroke="none" stroke-width="1" stroke-linecap="butt" stroke-linejoin="miter" stroke-miterlimit="10" stroke-dasharray="" stroke-dashoffset="0" font-family="none" font-weight="none" font-size="none" text-anchor="none" style="mix-blend-mode: normal" data-fill-palette-color="primary" opacity="1"></path><path xmlns="http://www.w3.org/2000/svg" d="M30.15 36.6h11.15v2.15h-41.3v-2.15h11.15c-2.733-1.567-4.893-3.717-6.48-6.45-1.58-2.733-2.37-5.767-2.37-9.1v0c0-5.133 1.767-9.427 5.3-12.88 3.533-3.447 7.883-5.17 13.05-5.17 5.167 0 9.517 1.723 13.05 5.17 3.533 3.453 5.3 7.747 5.3 12.88v0c0 3.333-0.8 6.367-2.4 9.1-1.6 2.733-3.75 4.883-6.45 6.45zM31.05 21.07c0-3.113-1-5.77-3-7.97-2-2.2-4.457-3.3-7.37-3.3-2.92 0-5.38 1.1-7.38 3.3-2 2.2-3 4.857-3 7.97 0 3.12 1 5.77 3 7.95 2 2.187 4.46 3.28 7.38 3.28 2.913 0 5.37-1.093 7.37-3.28 2-2.18 3-4.83 3-7.95zM53.4 36.6h18.5v2.15h-30.6v-2.15h4.3v-32.8h24v6.85h-16.2v7.55h15.4v6.85h-15.4z" fill="#000000" fill-rule="nonzero" stroke="none" stroke-width="1" stroke-linecap="butt" stroke-linejoin="miter" stroke-miterlimit="10" stroke-dasharray="" stroke-dashoffset="0" font-family="none" font-weight="none" font-size="none" text-anchor="none" style="mix-blend-mode: normal" data-fill-palette-color="primary" opacity="1"></path><path xmlns="http://www.w3.org/2000/svg" d="M30.8 75.35h6.7v2.15h-37.5v-2.15h10.85c-2.667-1.567-4.757-3.693-6.27-6.38-1.52-2.68-2.28-5.72-2.28-9.12v0c0-5.133 1.777-9.433 5.33-12.9 3.547-3.467 7.83-5.2 12.85-5.2 5.013 0 9.37 1.65 13.07 4.95v0l-4.05 5.85c-1.567-1.367-3.007-2.31-4.32-2.83-1.32-0.513-2.747-0.77-4.28-0.77v0c-2.967 0-5.467 1.007-7.5 3.02-2.033 2.02-3.05 4.68-3.05 7.98 0 3.3 0.977 5.94 2.93 7.92 1.947 1.987 4.27 2.98 6.97 2.98 2.7 0 4.95-0.517 6.75-1.55v0-9.6h7.85v12.4c-1.133 1.267-2.483 2.35-4.05 3.25zM73.75 75.35h5.8v2.15h-13.15l-3.25-7.55h-14.65l-3.25 7.55h-13.15v-2.15h5.75l14.2-32.8h7.55zM60.2 63.1l-4.35-10.15-4.4 10.15zM101.45 75.35h4.85v2.15h-32.4v-2.15h4.85v-32.8h7.8v28h14.9zM129.85 75.35h4.85v2.15h-32.4v-2.15h4.85v-32.8h7.8v28h14.9zM130.7 75.35h4.85v-32.8h25.2v6.95h-17.4v7.2h15.65v6.65h-15.65v7.25h17.95v4.75h4.85v2.15h-35.45zM163.4 75.35h4.85v-32.8h13.25c5.433 0 9.31 0.917 11.63 2.75 2.313 1.833 3.47 4.783 3.47 8.85v0c0 5.6-2.217 9.217-6.65 10.85v0l7.3 10.35h4.7v2.15h-12.75l-7.75-11.15h-5.4v11.15h-12.65zM181.75 59.6c2.667 0 4.483-0.433 5.45-1.3 0.967-0.867 1.45-2.243 1.45-4.13 0-1.88-0.5-3.17-1.5-3.87-1-0.7-2.75-1.05-5.25-1.05v0h-5.85v10.35zM212.4 75.35h4.3v2.15h-16.4v-2.15h4.3v-32.8h7.8zM216.15 75.35h4.85v-32.8h25.2v6.95h-17.4v7.2h15.65v6.65h-15.65v7.25h17.95v4.75h4.85v2.15h-35.45zM274.9 75.35h6.4v2.15h-31.9v-2.15h6.8c-1.833-0.933-3.5-2.133-5-3.6v0l4.65-5.7c3.767 3.3 7.25 4.95 10.45 4.95v0c1.433 0 2.557-0.31 3.37-0.93 0.82-0.613 1.23-1.447 1.23-2.5 0-1.047-0.433-1.88-1.3-2.5-0.867-0.613-2.583-1.237-5.15-1.87v0c-4.067-0.967-7.043-2.223-8.93-3.77-1.88-1.553-2.82-3.99-2.82-7.31 0-3.313 1.19-5.87 3.57-7.67 2.387-1.8 5.363-2.7 8.93-2.7v0c2.333 0 4.667 0.4 7 1.2 2.333 0.8 4.367 1.933 6.1 3.4v0l-3.95 5.7c-3.033-2.3-6.167-3.45-9.4-3.45v0c-1.3 0-2.323 0.307-3.07 0.92-0.753 0.62-1.13 1.437-1.13 2.45 0 1.02 0.46 1.83 1.38 2.43 0.913 0.6 3.027 1.307 6.34 2.12 3.32 0.82 5.897 2.047 7.73 3.68 1.833 1.633 2.75 3.9 2.75 6.8v0c0 3.6-1.35 6.383-4.05 8.35z" fill="#000000" fill-rule="nonzero" stroke="none" stroke-width="1" stroke-linecap="butt" stroke-linejoin="miter" stroke-miterlimit="10" stroke-dasharray="" stroke-dashoffset="0" font-family="none" font-weight="none" font-size="none" text-anchor="none" style="mix-blend-mode: normal" data-fill-palette-color="primary" opacity="1"></path></g></svg></g></svg></g><g transform="matrix(1,0,0,1,0,175.31914990344828)"><svg viewBox="0 0 232.209792 18.200014574739868" height="18.200014574739868" width="232.209792"><g transform="matrix(1,0,0,1,0,0)"><svg width="232.209792" viewBox="4.579999923706055 -35.63999938964844 597.5499877929688 46.84000015258789" height="18.200014574739868" data-palette-color="#4d331f"><path d="M26.82-28.97Q31.12-24.67 31.12-16.68 31.12-8.7 26.66-4.35 22.19 0 13.78 0L13.78 0 4.58 0 4.58-33.27 14.76-33.27Q22.52-33.27 26.82-28.97ZM8.44-3.34L13.14-3.34Q20.05-3.34 23.53-6.74 27.02-10.14 27.02-16.72 27.02-23.31 23.76-26.61 20.5-29.9 14.05-29.9L14.05-29.9 8.44-29.9 8.44-3.34ZM41.48-29.82Q40.85-29.17 39.86-29.17 38.88-29.17 38.27-29.82 37.66-30.46 37.66-31.7 37.66-32.94 38.27-33.57 38.88-34.2 39.86-34.2 40.85-34.2 41.48-33.56 42.11-32.91 42.11-31.69 42.11-30.46 41.48-29.82ZM37.97-24.92L41.76-24.92 41.76 0 37.97 0 37.97-24.92ZM65.84-6.8L65.84-6.8Q65.84-3.31 63.25-1.43 60.66 0.46 55.83 0.46 51.01 0.46 48.23-1.11L48.23-1.11 48.23-4.63Q52.12-2.65 56.06-2.65L56.06-2.65Q62.2-2.65 62.2-6.47L62.2-6.47Q62.2-7.94 60.92-8.99 59.63-10.04 56.11-11.36 52.6-12.69 51.06-13.68L51.06-13.68Q48.15-15.65 48.15-18.76 48.15-21.87 50.63-23.62 53.1-25.38 57.31-25.38 61.52-25.38 65.31-23.76L65.31-23.76 63.97-20.68Q60.26-22.22 57.39-22.22 54.52-22.22 53.14-21.4 51.76-20.58 51.76-19.06L51.76-19.06Q51.76-18.1 52.26-17.38 52.75-16.66 53.89-16.01 55.03-15.37 58.29-14.18L58.29-14.18Q62.74-12.54 64.29-10.91 65.84-9.28 65.84-6.8ZM81.94 0.46L81.94 0.46Q76.51 0.46 73.53-2.88L73.53-2.88Q70.57-6.22 70.57-12.37 70.57-18.53 73.58-21.97L73.58-21.97Q76.61-25.38 82.17-25.38L82.17-25.38Q83.99-25.38 85.79-25 87.58-24.62 88.59-24.09L88.59-24.09 87.43-20.88Q84.62-22.04 82.1-22.04L82.1-22.04Q74.49-22.04 74.49-12.36L74.49-12.36Q74.49-7.74 76.36-5.28 78.23-2.83 81.84-2.83L81.84-2.83Q84.93-2.83 88.24-4.2L88.24-4.2 88.24-0.83Q85.74 0.46 81.94 0.46ZM95.81-21.99Q98.88-25.38 104.19-25.38 109.49-25.38 112.58-21.9 115.66-18.43 115.66-12.42 115.66-6.42 112.58-2.96L112.58-2.96Q109.49 0.46 104.11 0.46L104.11 0.46Q99.03 0.51 95.84-3.06 92.66-6.62 92.74-12.49L92.74-12.49Q92.74-18.6 95.81-21.99ZM104.14-22.17L104.14-22.17Q96.65-22.17 96.65-12.49L96.65-12.49Q96.65-7.71 98.56-5.21 100.47-2.7 104.19-2.7 107.9-2.7 109.82-5.19 111.74-7.68 111.74-12.47 111.74-17.26 109.82-19.72 107.9-22.17 104.14-22.17ZM140.66-24.92L131.21 0 126.78 0 117.33-24.92 121.37-24.92 126.76-10.14Q128.58-4.9 128.88-3.41L128.88-3.41 129.06-3.41Q129.34-4.65 130.49-7.94 131.64-11.22 136.62-24.92L136.62-24.92 140.66-24.92ZM155.19 0.46L155.19 0.46Q149.66 0.46 146.45-2.91L146.45-2.91Q143.26-6.27 143.26-12.29 143.26-18.3 146.22-21.84L146.22-21.84Q149.23-25.38 154.07-25.38 158.91-25.38 161.64-22.3 164.37-19.21 164.37-14.18L164.37-14.18 164.37-11.78 147.18-11.78Q147.31-7.41 149.4-5.12 151.5-2.83 155.46-2.83 159.41-2.83 163.28-4.52L163.28-4.52 163.28-1.16Q161.33-0.3 159.51 0.08 157.69 0.46 155.19 0.46ZM147.28-14.86L160.32-14.86Q160.32-18.43 158.73-20.32 157.14-22.22 154.17-22.22 151.2-22.22 149.39-20.27 147.58-18.33 147.28-14.86L147.28-14.86ZM182.16-25.38L182.16-25.38Q183.88-25.38 185.14-25.13L185.14-25.13 184.64-21.61Q183.15-21.94 181.91-21.94L181.91-21.94Q178.88-21.94 176.73-19.49 174.58-17.04 174.58-13.37L174.58-13.37 174.58 0 170.79 0 170.79-24.92 173.92-24.92 174.35-20.32 174.53-20.32Q175.92-22.78 177.88-24.08 179.84-25.38 182.16-25.38ZM207.31-21.99L207.31-7.33Q207.31-5.08 208.36-3.87 209.41-2.65 211.24-2.65 213.07-2.65 214.71-3.11L214.71-3.11 214.71-0.23Q214.13 0.05 212.88 0.25 211.63 0.46 210.75 0.46L210.75 0.46Q203.52 0.46 203.52-7.15L203.52-7.15 203.52-21.99 199.95-21.99 199.95-23.81 203.52-25.38 205.11-30.71 207.31-30.71 207.31-24.92 214.54-24.92 214.54-21.99 207.31-21.99ZM240.55-16.25L240.55 0 236.75 0 236.75-16.13Q236.75-19.21 235.36-20.69 233.97-22.17 231.04-22.17L231.04-22.17Q227.07-22.17 225.28-20.02 223.48-17.87 223.48-13.04L223.48-13.04 223.48 0 219.69 0 219.69-35.39 223.48-35.39 223.48-24.67Q223.48-22.65 223.31-21.49L223.31-21.49 223.53-21.49Q224.67-23.31 226.73-24.33 228.79-25.35 231.4-25.35L231.4-25.35Q236.02-25.35 238.28-23.15 240.55-20.96 240.55-16.25L240.55-16.25ZM258.82 0.46L258.82 0.46Q253.28 0.46 250.07-2.91L250.07-2.91Q246.89-6.27 246.89-12.29 246.89-18.3 249.85-21.84L249.85-21.84Q252.85-25.38 257.69-25.38 262.54-25.38 265.27-22.3 268-19.21 268-14.18L268-14.18 268-11.78 250.81-11.78Q250.93-7.41 253.03-5.12 255.13-2.83 259.09-2.83 263.04-2.83 266.91-4.52L266.91-4.52 266.91-1.16Q264.96-0.3 263.14 0.08 261.32 0.46 258.82 0.46ZM250.91-14.86L263.95-14.86Q263.95-18.43 262.36-20.32 260.77-22.22 257.8-22.22 254.83-22.22 253.02-20.27 251.21-18.33 250.91-14.86L250.91-14.86ZM297.16-24.37L293.24-14.05 303.99-14.05 300.12-24.37Q299.34-26.49 298.58-29.17L298.58-29.17Q298.12-27.1 297.16-24.37L297.16-24.37ZM300.27-33.39L313.34 0 309.35 0 305.2-10.57 291.88-10.57 287.78 0 283.87 0 297.01-33.39 300.27-33.39ZM328.71-25.38L328.71-25.38Q330.43-25.38 331.69-25.13L331.69-25.13 331.18-21.61Q329.69-21.94 328.45-21.94L328.45-21.94Q325.42-21.94 323.27-19.49 321.12-17.04 321.12-13.37L321.12-13.37 321.12 0 317.33 0 317.33-24.92 320.47-24.92 320.9-20.32 321.07-20.32Q322.46-22.78 324.42-24.08 326.38-25.38 328.71-25.38ZM340.41-21.99L340.41-7.33Q340.41-5.08 341.46-3.87 342.51-2.65 344.34-2.65 346.17-2.65 347.81-3.11L347.81-3.11 347.81-0.23Q347.23 0.05 345.98 0.25 344.73 0.46 343.85 0.46L343.85 0.46Q336.62 0.46 336.62-7.15L336.62-7.15 336.62-21.99 333.05-21.99 333.05-23.81 336.62-25.38 338.21-30.71 340.41-30.71 340.41-24.92 347.64-24.92 347.64-21.99 340.41-21.99ZM357.7-24.92L364.04-24.92 364.04-21.99 357.7-21.99 357.7 0 353.9 0 353.9-21.99 349.45-21.99 349.45-23.71 353.9-25.08 353.9-26.47Q353.9-35.64 361.94-35.64L361.94-35.64Q363.94-35.64 366.59-34.86L366.59-34.86 365.61-31.83Q363.48-32.53 361.87-32.53L361.87-32.53Q359.72-32.53 358.71-31.09 357.7-29.65 357.7-26.54L357.7-26.54 357.7-24.92ZM368.33-8.62L368.33-24.92 372.15-24.92 372.15-8.75Q372.15-5.69 373.55-4.2 374.96-2.7 377.89-2.7L377.89-2.7Q381.81-2.7 383.6-4.85 385.4-7 385.4-11.83L385.4-11.83 385.4-24.92 389.19-24.92 389.19 0 386.08 0 385.52-3.34 385.32-3.34Q384.16-1.52 382.11-0.53 380.06 0.46 377.41 0.46L377.41 0.46Q372.81 0.46 370.57-1.73 368.33-3.92 368.33-8.62L368.33-8.62ZM397.17-35.39L400.97-35.39 400.97 0 397.17 0 397.17-35.39ZM443.76-29.83L433.22-29.83 433.22 0 429.35 0 429.35-29.83 418.81-29.83 418.81-33.27 443.76-33.27 443.76-29.83ZM446.53-6.85L446.53-6.85Q446.53-4.83 447.77-3.74 449.01-2.65 451.24-2.65L451.24-2.65Q454.8-2.65 456.8-4.59 458.79-6.52 458.79-10.01L458.79-10.01 458.79-12.26 455.03-12.11Q450.53-11.93 448.53-10.69 446.53-9.45 446.53-6.85ZM462.59-17.01L462.59 0 459.78 0 459.02-3.54 458.85-3.54Q456.97-1.21 455.13-0.38 453.28 0.46 450.5 0.46L450.5 0.46Q446.76 0.46 444.68-1.47 442.59-3.39 442.59-6.9L442.59-6.9Q442.59-14.43 454.65-14.81L454.65-14.81 458.9-14.94 458.9-16.48Q458.9-19.46 457.63-20.84 456.37-22.22 453.42-22.22 450.48-22.22 446.53-20.32L446.53-20.32 445.37-23.21Q449.32-25.35 453.82-25.35 458.31-25.35 460.45-23.36 462.59-21.36 462.59-17.01L462.59-17.01ZM486.56-5.31Q488.39-7.91 488.39-12.54 488.39-17.16 486.57-19.67 484.75-22.17 481.42-22.17L481.42-22.17Q477.62-22.17 475.91-20.07 474.19-17.97 474.14-13.32L474.14-13.32 474.14-12.49Q474.14-7.23 475.88-4.97 477.62-2.7 481.49-2.7L481.49-2.7Q484.73-2.7 486.56-5.31ZM489.61-21.99Q492.31-18.6 492.31-12.46 492.31-6.32 489.57-2.93 486.83 0.46 481.81 0.46 476.79 0.46 474.14-3.21L474.14-3.21 473.86-3.21Q474.14-0.91 474.14 0.94L474.14 0.94 474.14 11.2 470.34 11.2 470.34-24.92 473.43-24.92 473.96-21.51 474.14-21.51Q476.87-25.38 481.88-25.38 486.9-25.38 489.61-21.99ZM509.42 0.46L509.42 0.46Q503.89 0.46 500.68-2.91L500.68-2.91Q497.49-6.27 497.49-12.29 497.49-18.3 500.45-21.84L500.45-21.84Q503.46-25.38 508.3-25.38 513.14-25.38 515.87-22.3 518.6-19.21 518.6-14.18L518.6-14.18 518.6-11.78 501.41-11.78Q501.54-7.41 503.63-5.12 505.73-2.83 509.69-2.83 513.64-2.83 517.51-4.52L517.51-4.52 517.51-1.16Q515.56-0.3 513.74 0.08 511.92 0.46 509.42 0.46ZM501.51-14.86L514.55-14.86Q514.55-18.43 512.96-20.32 511.37-22.22 508.4-22.22 505.43-22.22 503.62-20.27 501.81-18.33 501.51-14.86L501.51-14.86ZM541.12-6.8L541.12-6.8Q541.12-3.31 538.53-1.43 535.94 0.46 531.11 0.46 526.28 0.46 523.5-1.11L523.5-1.11 523.5-4.63Q527.39-2.65 531.34-2.65L531.34-2.65Q537.48-2.65 537.48-6.47L537.48-6.47Q537.48-7.94 536.19-8.99 534.9-10.04 531.39-11.36 527.87-12.69 526.33-13.68L526.33-13.68Q523.42-15.65 523.42-18.76 523.42-21.87 525.9-23.62 528.38-25.38 532.59-25.38 536.8-25.38 540.59-23.76L540.59-23.76 539.25-20.68Q535.53-22.22 532.66-22.22 529.79-22.22 528.42-21.4 527.04-20.58 527.04-19.06L527.04-19.06Q527.04-18.1 527.53-17.38 528.02-16.66 529.16-16.01 530.3-15.37 533.56-14.18L533.56-14.18Q538.01-12.54 539.56-10.91 541.12-9.28 541.12-6.8ZM551.3-21.99L551.3-7.33Q551.3-5.08 552.35-3.87 553.4-2.65 555.23-2.65 557.07-2.65 558.71-3.11L558.71-3.11 558.71-0.23Q558.13 0.05 556.88 0.25 555.63 0.46 554.74 0.46L554.74 0.46Q547.51 0.46 547.51-7.15L547.51-7.15 547.51-21.99 543.95-21.99 543.95-23.81 547.51-25.38 549.1-30.71 551.3-30.71 551.3-24.92 558.53-24.92 558.53-21.99 551.3-21.99ZM575.06-25.38L575.06-25.38Q576.78-25.38 578.04-25.13L578.04-25.13 577.54-21.61Q576.05-21.94 574.81-21.94L574.81-21.94Q571.78-21.94 569.63-19.49 567.48-17.04 567.48-13.37L567.48-13.37 567.48 0 563.69 0 563.69-24.92 566.82-24.92 567.25-20.32 567.43-20.32Q568.82-22.78 570.78-24.08 572.74-25.38 575.06-25.38ZM582.47 11.2L582.47 11.2Q580.77 11.2 579.05 10.82L579.05 10.82 579.05 7.79Q580.37 8.06 581.86 8.06L581.86 8.06Q585.75 8.06 587.42 3.69L587.42 3.69 588.81 0.13 578.75-24.92 582.79-24.92 588.25-10.72Q590.1-5.66 590.48-3.69L590.48-3.69 590.66-3.69Q590.98-4.98 591.86-7.56 592.73-10.14 598.09-24.92L598.09-24.92 602.13-24.92 591.41 3.46Q589.85 7.63 587.72 9.42 585.6 11.2 582.47 11.2Z" opacity="1" transform="matrix(1,0,0,1,0,0)" fill="#000000" class="slogan-text-1" data-fill-palette-color="secondary" id="text-1"></path></svg></g></svg></g></svg></g></svg></g><g></g></svg></g><defs></defs></svg><rect width="395.52" height="193.51916447818815" fill="none" stroke="none" visibility="hidden"></rect></g></svg></g></svg>